# xmcd
#
# Track frame offsets:
#	150
#	12332
#	24152
#	41527
#	64117
#	75015
#	100733
#	112333
#	127060
#	135070
#	155303
#	165057
#	186376
#
# Disc length: 2698 seconds
#
# Revision: 1
# Processed by: cddbd v1.5.2PL0 Copyright (c) Steve Scherf et al.
# Submitted via: audiograbber 1.83.01
#
DISCID=900a880d
DTITLE=Heart Attack Alley - Living In Hell
DYEAR=2012
DGENRE=Stomp Blues
TTITLE0=Too Hot Blues
TTITLE1=Cryin
TTITLE2=My Beating Heart
TTITLE3=Touble
TTITLE4=New Instrumental
TTITLE5=Living In Hell
TTITLE6=Slave To Your Mojo
TTITLE7=Spit It Out
TTITLE8=I Am Touble
TTITLE9=Aint It Funny
TTITLE10=Don't Waste My Time
TTITLE11=Where You Been
TTITLE12=Dream Walk
EXTD=
EXTT0=
EXTT1=
EXTT2=
EXTT3=
EXTT4=
EXTT5=
EXTT6=
EXTT7=
EXTT8=
EXTT9=
EXTT10=
EXTT11=
EXTT12=
PLAYORDER=
